<svg width="17" height="18" viewBox="0 0 17 18" fill="none" xmlns="http://www.w3.org/2000/svg">
<path d="M5.4892 9.01805L13.1448 3.55333C13.2823 3.45539 13.4239 3.67101 13.3058 3.79804L6.98769 10.6048C6.76563 10.8443 6.62236 11.165 6.58179 11.513L6.36656 13.3616C6.33808 13.6084 6.03891 13.6329 5.98015 13.394L5.15242 10.0231C5.05763 9.63862 5.19579 9.22797 5.4892 9.01805Z" fill="#C3C3C7"/>
<path d="M0.300255 8.22558L4.2174 9.92004L5.73359 15.5713C5.83061 15.9332 6.21247 16.067 6.46595 15.8269L8.64942 13.7638C8.87829 13.5477 9.20431 13.5369 9.4435 13.7382L13.3817 17.052C13.6529 17.2804 14.037 17.1082 14.105 16.7285L16.99 0.64491C17.0642 0.230109 16.7125 -0.115962 16.3717 0.0368124L0.295673 7.22446C-0.101038 7.40179 -0.0975847 8.05276 0.300255 8.22558ZM5.48924 9.01801L13.1448 3.55329C13.2824 3.45535 13.4239 3.67097 13.3058 3.798L6.98773 10.6047C6.76567 10.8443 6.6224 11.1649 6.58183 11.513L6.3666 13.3615C6.33811 13.6083 6.03895 13.6328 5.98018 13.394L5.15246 10.0231C5.05767 9.63858 5.19583 9.22793 5.48924 9.01801Z" fill="white"/>
</svg>
