<svg width="17" height="17" viewBox="0 0 17 17" fill="none" xmlns="http://www.w3.org/2000/svg">
<g clip-path="url(#clip0_118_10)">
<path fill-rule="evenodd" clip-rule="evenodd" d="M17 3.30997C16.3746 3.58295 15.7025 3.76747 14.9969 3.85027C15.7169 3.42538 16.2701 2.75251 16.5302 1.95119C15.8564 2.34457 15.1098 2.63058 14.3157 2.78402C13.6796 2.11724 12.7731 1.69995 11.7699 1.69995C9.84394 1.69995 8.28221 3.23695 8.28221 5.13342C8.28221 5.40227 8.31312 5.66459 8.37273 5.91605C5.47401 5.77282 2.90424 4.40578 1.18399 2.32827C0.883745 2.83553 0.711765 3.4256 0.711765 4.05457C0.711765 5.24578 1.32749 6.29638 2.26334 6.91231C1.69177 6.89428 1.15397 6.73975 0.683727 6.48286C0.683285 6.4972 0.683285 6.51133 0.683285 6.52611C0.683285 8.18916 1.88538 9.57685 3.48067 9.89264C3.18815 9.97066 2.88017 10.0128 2.56204 10.0128C2.33708 10.0128 2.11874 9.99153 1.90569 9.95132C2.34944 11.3151 3.63742 12.3081 5.1636 12.3359C3.9699 13.2566 2.46623 13.8058 0.832084 13.8058C0.550602 13.8058 0.273093 13.7897 0 13.7577C1.54341 14.7318 3.37669 15.3 5.34618 15.3C11.7613 15.3 15.2694 10.0685 15.2694 5.5318C15.2694 5.38314 15.2658 5.2347 15.2592 5.08713C15.9412 4.60334 16.5326 3.99849 17 3.30997Z" fill="#FAFAFA"/>
</g>
<defs>
<clipPath id="clip0_118_10">
<rect width="17" height="17" fill="white"/>
</clipPath>
</defs>
</svg>
